<svg width="22" height="22" viewBox="8 8 30 30" xmlns="http://www.w3.org/2000/svg">
  <defs>
    <g id="digit4" stroke-linecap="round" fill-rule="evenodd" stroke="#000" fill="none" style="stroke:#000;stroke-width:0.25mm;fill:none">
      <path d="M 9.612 8.91 L 9.612 9.54 L 7.308 9.54 L 7.308 12.924 L 6.624 12.924 L 6.624 9.54 L 0 9.54 L 0 9.018 L 6.588 0 L 7.308 0 L 7.308 8.91 L 9.612 8.91 Z M 6.624 8.91 L 6.624 3.708 Q 6.624 3.324 6.628 3.013 A 31.416 31.416 0 0 1 6.633 2.745 A 41.908 41.908 0 0 0 6.638 2.455 Q 6.64 2.34 6.641 2.235 A 24.116 24.116 0 0 0 6.642 2.034 Q 6.642 1.728 6.651 1.431 A 19.875 19.875 0 0 0 6.659 0.97 A 22.61 22.61 0 0 0 6.66 0.81 L 6.624 0.81 Q 6.392 1.197 6.2 1.504 A 28.972 28.972 0 0 1 6.138 1.602 A 7.098 7.098 0 0 1 5.962 1.866 Q 5.874 1.993 5.77 2.133 A 16.178 16.178 0 0 1 5.544 2.43 L 0.828 8.91 L 6.624 8.91 Z" vector-effect="non-scaling-stroke"/>
    </g>
  </defs>
  <use href="#digit4" x="12" y="10"/>
  <use href="#digit4" x="24" y="10"/>
  <circle cx="24" cy="32" r="4" fill="none" stroke='black' stroke-width='2' />
</svg>
