<?xml version="1.0" encoding="iso-8859-1"?>
<!-- Uploaded to: SVG Repo, www.svgrepo.com, Generator: SVG Repo Mixer Tools -->
<svg fill="#000000" height="800px" width="800px" version="1.1" id="Layer_1" xmlns="http://www.w3.org/2000/svg" xmlns:xlink="http://www.w3.org/1999/xlink" 
	 viewBox="0 0 330 330" xml:space="preserve">
<g id="XMLID_459_">
	<path id="XMLID_460_" d="M215,110.001c-14.691,0-28.502,5.721-38.89,16.108c-10.388,10.388-16.109,24.2-16.109,38.891
		c0,14.691,5.721,28.503,16.109,38.891C186.498,214.279,200.309,220,215,220c14.691,0,28.503-5.721,38.891-16.109
		c21.444-21.443,21.444-56.336,0-77.782C243.503,115.722,229.691,110.001,215,110.001z M232.679,182.678
		C227.956,187.4,221.679,190,215,190c-6.678,0-12.956-2.601-17.677-7.322c-4.722-4.722-7.322-11-7.322-17.678
		s2.601-12.956,7.322-17.678c4.722-4.722,11-7.321,17.677-7.321c6.678,0,12.957,2.6,17.678,7.321
		C242.426,157.07,242.426,172.931,232.679,182.678z"/>
	<path id="XMLID_463_" d="M306.191,95.023l19.416-19.416c5.857-5.858,5.857-15.355,0-21.213c-5.858-5.859-15.355-5.857-21.213,0
		l-19.415,19.415C265.579,58.887,241.31,50,215,50H15C6.716,50,0,56.716,0,65v60c0,7.15,5.047,13.307,12.058,14.709l88.196,17.639
		C100.085,159.897,100,162.45,100,165c0,63.411,51.589,115,115,115s115-51.589,115-115C330,138.691,321.113,114.422,306.191,95.023z
		 M215,250c-46.869,0-85-38.131-85-85c0-5.597,0.552-11.212,1.641-16.69c1.613-8.118-3.654-16.009-11.771-17.633L30,112.703V80h185
		c46.869,0,85,38.131,85,85S261.869,250,215,250z"/>
</g>
</svg>