<svg width="22" height="22" viewBox="0 0 105.3 71.8" xmlns="http://www.w3.org/2000/svg"><path d="M 94.9 71.8 L 86.3 71.8 L 86.3 55.8 L 55.3 55.8 L 55.3 48.4 L 84.7 0 L 94.9 0 L 94.9 48.1 L 105.3 48.1 L 105.3 55.8 L 94.9 55.8 L 94.9 71.8 Z M 82.1 18 L 64 48.1 L 86.3 48.1 L 86.3 30.3 Q 86.3 27.6 86.35 24.6 Q 86.4 21.6 86.5 18.7 Q 86.6 15.8 86.7 13.35 Q 86.8 10.9 86.9 9.2 L 86.5 9.2 A 28.209 28.209 0 0 1 85.884 10.723 Q 85.589 11.399 85.23 12.143 A 58.018 58.018 0 0 1 84.45 13.7 Q 83.116 16.269 82.124 17.959 A 50.657 50.657 0 0 1 82.1 18 Z M 18.6 71.8 L 18.6 27.2 Q 18.6 24.4 18.65 21.15 A 366.939 366.939 0 0 1 18.776 15.616 A 333.535 333.535 0 0 1 18.8 14.85 Q 18.9 11.8 19 9.6 A 50.712 50.712 0 0 1 17.657 10.33 Q 16.831 10.762 16.1 11.1 Q 14.806 11.697 12.223 12.988 A 369.332 369.332 0 0 0 12.2 13 L 3.9 17.3 L 0 10.5 L 19.9 0.4 L 27.2 0.4 L 27.2 71.8 L 18.6 71.8 Z M 42.3 71.8 L 3.6 71.8 L 3.6 65.8 L 18.6 64.8 L 27.2 64.8 L 42.3 65.8 L 42.3 71.8 Z" /></svg>
